Coordinates
version=1
nRows=19
nColumns=36
inDegrees=yes

Units are S.I. units (second, meters, Newtons, ...)
If the header above contains a line with 'inDegrees', this indicates whether rotational values are in degrees (yes) or radians (no).

endheader
time	pelvis_tilt	pelvis_list	pelvis_rotation	pelvis_tx	pelvis_ty	pelvis_tz	hip_flexion_r	hip_adduction_r	hip_rotation_r	knee_angle_r	knee_angle_r_beta	ankle_angle_r	subtalar_angle_r	mtp_angle_r	hip_flexion_l	hip_adduction_l	hip_rotation_l	knee_angle_l	knee_angle_l_beta	ankle_angle_l	subtalar_angle_l	mtp_angle_l	lumbar_extension	lumbar_bending	lumbar_rotation	arm_flex_r	arm_add_r	arm_rot_r	elbow_flex_r	pro_sup_r	arm_flex_l	arm_add_l	arm_rot_l	elbow_flex_l	pro_sup_l
      2.50847460	    -79.20034499	     -6.80129894	     17.29095264	     -0.18096851	      0.43375468	     -0.05457103	     61.74580684	      1.31219575	      3.90810309	     91.22356408	      1.59215155	    -12.97517560	    -13.99676121	     -7.49999540	     20.96833530	     -0.12863626	     16.18404367	     14.28850262	      0.24938142	    -12.83369460	      0.29369822	     -7.49999540	     -7.69144401	      7.61596901	    -11.84674497	     66.81098105	    -20.40140408	     17.96181036	     40.35923864	     97.78315332	     80.32104018	    -15.11431892	     61.22960402	     19.49129632	     54.54168262
      2.52542370	    -79.29260749	     -6.57561591	     16.83242683	     -0.18479865	      0.43259192	     -0.05230097	     59.43274759	      1.81413327	      2.81905720	     87.50081946	      1.52717740	    -11.08965650	    -13.34350168	     -7.49999562	     20.62386302	      0.39321414	     16.58367867	     14.57061161	      0.25430515	    -10.60106874	     -0.39368560	     -7.49999562	     -7.50912332	      7.31302236	    -11.48814856	     67.26056117	    -20.72472436	     18.28703510	     40.14432644	     97.18441373	     80.52980143	    -15.12629579	     61.06158686	     20.14402153	     54.94809178
      2.54237290	    -79.16578936	     -6.38120940	     16.32752802	     -0.18537295	      0.43049092	     -0.04952175	     56.69993491	      2.69787001	      1.79700606	     83.29989549	      1.45385744	     -9.56422214	    -13.57154081	     -7.49999620	     20.14310191	      0.50059653	     16.96728196	     14.68681680	      0.25633331	     -8.99610252	     -1.20537672	     -7.49999620	     -7.60822642	      6.95184479	    -11.19364283	     68.25088104	    -21.00006894	     20.48359204	     39.02411149	     96.84464032	     80.90629940	    -15.17467072	     60.96976814	     20.09583148	     57.00545159
      2.55932200	    -78.93829713	     -6.30979294	     15.83296934	     -0.18308623	      0.42647714	     -0.04772145	     53.41207738	      3.77127490	      0.80391959	     78.30146786	      1.36661842	     -8.21610639	    -14.17567597	     -7.49999626	     19.50116280	      0.20893991	     17.27382511	     14.55211335	      0.25398229	     -7.78835803	     -1.70590309	     -7.49999626	     -7.77874262	      6.59083651	    -10.69066020	     68.37842244	    -21.21649030	     20.52762146	     38.77337337	     96.77153000	     81.15375667	    -15.11554119	     61.00629013	     20.37736726	     57.22665484
      2.57627120	    -78.89190634	     -6.16265701	     15.12386022	     -0.18166849	      0.42255116	     -0.04633103	     50.11528134	      4.81248445	      0.23804598	     72.76800564	      1.27004129	     -6.79219201	    -14.69821052	     -7.49999629	     18.84879970	     -0.09135288	     17.06909624	     14.13830099	      0.24675990	     -6.95987458	     -2.01553784	     -7.49999629	     -7.56192141	      6.02328889	    -10.13006527	     68.08758899	    -21.24066200	     20.68561192	     38.54637698	     96.74807984	     81.00066106	    -15.17562748	     61.09380138	     20.49438559	     57.34965625
      2.59322030	    -77.56593211	     -6.13296074	     14.40665969	     -0.18195439	      0.42078214	     -0.04563025	     45.60055466	      6.05069312	     -0.22171070	     66.96521805	      1.16876354	     -5.81811848	    -15.39446289	     -7.49999639	     16.84974357	     -0.75970852	     16.43608389	     13.61132366	      0.23756241	     -5.84844752	     -1.36679928	     -7.49999639	     -9.15603360	      6.02129368	     -9.26180359	     68.72186736	    -21.52130106	     21.27188860	     38.31140269	     96.63029226	     81.65382375	    -15.13207822	     61.13267977	     20.60256892	     57.76196987
      2.61016950	    -76.99800361	     -6.38566693	     13.49791998	     -0.18611642	      0.41836498	     -0.04530652	     42.47788601	      7.14607639	     -0.34534522	     61.90522060	      1.08044992	     -4.28799014	    -15.35740413	     -7.49999689	     15.67097624	     -1.25792729	     15.82836760	     13.15007772	      0.22951215	     -4.62930153	     -1.25848519	     -7.49999689	     -9.52194121	      6.21292590	     -8.42805959	     69.54188559	    -21.75427502	     23.79259911	     37.40481823	     95.54624910	     81.81498132	    -15.14449448	     61.33194713	     20.33739654	     59.43858289
      2.62711860	    -76.82312605	     -6.95242894	     12.53673968	     -0.18974102	      0.41607991	     -0.04425233	     40.15128004	      8.37358451	     -0.22682752	     57.34091223	      1.00078771	     -2.34149255	    -15.37843546	     -7.49999695	     14.95989069	     -1.83001514	     15.47448431	     12.63285165	      0.22048486	     -3.25968472	     -1.79332042	     -7.49999695	     -9.35023670	      6.70585888	     -7.46331356	     69.73812685	    -21.78226997	     23.86707826	     37.29300183	     95.25425075	     81.75082542	    -15.20831292	     61.32893209	     20.51379185	     59.50677027
      2.64406780	    -75.97010064	     -7.45819261	     11.88254683	     -0.19013672	      0.41443641	     -0.04216676	     37.01659695	      9.66582451	      0.16874173	     52.76439503	      0.92091242	     -0.28083963	    -15.55010985	     -7.49999702	     13.53538121	     -2.51584022	     15.15810229	     11.94398956	      0.20846194	     -1.53533358	     -2.18658822	     -7.49999702	    -10.12134721	      7.20819812	     -6.69794440	     70.33410365	    -21.83792021	     24.33821155	     36.91608582	     95.02907550	     82.27771556	    -15.13632580	     61.25892965	     20.33639943	     59.61434528
      2.66101700	    -75.32473366	     -7.55744526	     11.33634835	     -0.19130985	      0.41198110	     -0.03977574	     34.05614270	     10.56921957	      1.18646388	     48.62275681	      0.84862720	      2.02520225	    -16.00721422	     -7.49999710	     12.38943566	     -2.80972493	     14.75846277	     11.34985566	      0.19809235	      0.61433805	     -2.76974541	     -7.49999710	    -10.63627221	      7.12133119	     -6.17301271	     70.72560297	    -21.81680023	     25.16383236	     36.35068972	     94.85522394	     82.69025259	    -15.03513124	     61.39374399	     19.86935679	     59.78939466
      2.67796610	    -75.08450409	     -7.09160065	     10.85583741	     -0.19477676	      0.40966107	     -0.03774965	     31.60695288	     10.72833645	      2.65805059	     45.19202448	      0.78874962	      4.29993667	    -16.44499656	     -7.49999721	     11.95196764	     -2.54313465	     14.54830573	     11.15665613	      0.19472038	      3.12695288	     -3.89588556	     -7.49999721	    -10.83161288	      6.27874998	     -5.85274275	     70.81798704	    -21.71612971	     25.93369791	     35.89443015	     94.53343631	     83.06730522	    -14.93388357	     61.78234237	     19.40555082	     60.04203629
      2.69491530	    -75.53395460	     -5.95927654	     10.50258903	     -0.19788855	      0.40868752	     -0.03608293	     29.91862750	      9.93470742	      4.45492627	     42.28307540	      0.73797888	      5.99629394	    -16.89859106	     -7.49999723	     12.75624841	     -1.66314407	     14.56907930	     11.39703709	      0.19891582	      5.41686421	     -5.23213679	     -7.49999723	    -10.48321927	      4.55451822	     -5.94912984	     70.25144482	    -21.44493095	     26.08922693	     35.86810828	     94.44621423	     83.18526561	    -15.19532581	     61.80218729	     19.42040863	     60.06650883
      2.71186440	    -76.10077246	     -4.06939114	     10.09617961	     -0.19764374	      0.40999515	     -0.03462742	     28.45197871	      8.34336378	      6.71550514	     39.75675102	      0.69388621	      7.66932346	    -17.74405141	     -7.49999727	     14.06482927	     -0.20930450	     15.26925131	     12.08653705	      0.21094987	      7.07340147	     -7.52443588	     -7.49999727	    -10.43463098	      2.02636383	     -5.89793895	     69.85086176	    -21.24679614	     25.86093290	     35.94961157	     94.21006401	     83.38323242	    -15.36059776	     61.94917058	     19.55449323	     60.17372768
      2.72881360	    -77.15370258	     -2.26874901	      9.89070820	     -0.19482485	      0.41189198	     -0.03330240	     27.40798745	      6.71944560	      9.00970236	     36.79550826	      0.64220277	      8.54259316	    -19.02412145	     -7.49999784	     16.15193000	      1.18691652	     16.80597751	     12.64547642	      0.22070520	      6.42451831	    -10.74005980	     -7.49999784	     -9.89601098	     -0.76844176	     -5.78914041	     68.08240999	    -21.37837817	     23.13238778	     37.52485998	     91.89918283	     83.91152014	    -14.88399750	     63.28432253	     19.01760574	     61.40091369
      2.74576270	    -77.97618069	     -0.98635559	      9.75740649	     -0.19193582	      0.41302901	     -0.03163228	     26.18429747	      5.65841109	     11.09745927	     33.63278691	      0.58700287	      9.28945795	    -20.57929592	     -7.49999795	     17.80813986	      2.02949827	     18.01388973	     12.93446365	      0.22574898	      5.78571451	    -12.22594641	     -7.49999795	     -9.33910999	     -2.71073035	     -6.02474743	     67.32960656	    -20.96377714	     22.12633435	     37.78178842	     92.18919192	     84.03523376	    -15.11575944	     63.62494729	     19.07115619	     61.49663270
      2.76271190	    -78.61657613	     -0.37980729	      9.50474758	     -0.19185756	      0.41254155	     -0.03003326	     25.03081580	      5.29576922	     12.72387634	     30.67514512	      0.53538228	     10.09597920	    -22.03491436	     -7.49999812	     18.83294556	      2.35110811	     18.94837129	     12.85400120	      0.22434464	      5.62529342	    -13.23014520	     -7.49999812	     -8.71806240	     -3.80742813	     -5.98487288	     66.80507681	    -20.70486235	     21.56198079	     37.93190962	     91.65902774	     84.08483751	    -15.18827051	     63.69209925	     18.95341776	     61.48744931
      2.77966100	    -79.06951214	     -0.29548516	      9.13761633	     -0.19424417	      0.41071726	     -0.02945262	     24.13832436	      5.38655513	     13.72996952	     28.38531425	      0.49541719	     11.38021100	    -22.66103376	     -7.49999813	     19.33193410	      2.29594516	     19.33315147	     12.58431805	      0.21963778	      6.57237535	    -13.71755978	     -7.49999813	     -8.09167161	     -4.20756385	     -5.80421071	     66.53920566	    -20.51982503	     21.55182360	     37.90113621	     91.73029309	     84.06004054	    -15.27990899	     63.73459177	     18.88502008	     61.50069900
      2.79661020	    -79.44495387	     -0.59489963	      8.67968575	     -0.19606726	      0.40820588	     -0.03038954	     23.47832208	      5.79273418	     14.48052136	     26.53275897	      0.46308400	     12.07705278	    -23.59774445	     -7.49999827	     19.63321724	      2.00745322	     19.52137271	     12.43376846	      0.21701020	      8.13189432	    -14.18252391	     -7.49999827	     -7.43968353	     -3.96835131	     -5.32567202	     66.20904623	    -20.64156176	     21.29003883	     38.38017781	     90.76788614	     83.75810960	    -15.30747573	     63.59606953	     19.13888684	     61.43430523
      2.81355930	    -79.70930120	     -0.83321424	      8.09413374	     -0.19557471	      0.40530550	     -0.03172318	     22.88184380	      6.07264549	     14.92103501	     25.16714944	      0.43924962	     12.72339054	    -23.85922973	     -7.49999860	     19.68847613	      1.78566910	     19.34116932	     12.46148754	      0.21749399	      9.20732109	    -14.16521333	     -7.49999860	     -6.76822961	     -3.77184423	     -4.65360982	     65.72510369	    -20.77410010	     20.74366203	     38.48151839	     91.88815850	     83.37343243	    -14.71306151	     62.98014874	     18.15586775	     61.64203691
